<svg width="175" height="50" viewBox="0 0 175 50" fill="none" xmlns="http://www.w3.org/2000/svg">
<path d="M175 6.94445e-05V50.0001H125V6.94445e-05H175ZM112.5 0V50H62.5V0H112.5ZM50 0V50H0V0H50ZM152.296 10.6379C150.046 10.6379 148.015 10.9723 146.202 11.6404C144.389 12.3091 142.834 13.273 141.538 14.532C140.24 15.7917 139.248 17.302 138.56 19.0624C137.872 20.8233 137.528 22.7963 137.528 24.9806C137.528 27.2169 137.859 29.2286 138.52 31.0147C139.182 32.8015 140.135 34.3112 141.379 35.545C142.623 36.7787 144.144 37.7235 145.944 38.3789C147.744 39.0343 149.768 39.3621 152.018 39.3621C153.711 39.3621 155.326 39.1753 156.861 38.8029C158.396 38.4306 159.745 37.9228 160.91 37.2801V31.9207C158.449 33.4378 155.763 34.1956 152.852 34.1956C150.946 34.1956 149.325 33.8358 147.989 33.1161C146.652 32.3966 145.633 31.349 144.932 29.9737C144.23 28.5989 143.88 26.9345 143.88 24.9806C143.88 23.0277 144.243 21.3697 144.971 20.007C145.699 18.6449 146.744 17.6039 148.108 16.8841C149.47 16.1647 151.118 15.8044 153.05 15.8044C154.453 15.8044 155.789 15.991 157.06 16.3634C158.33 16.7364 159.507 17.2827 160.593 18.002V12.5272C159.402 11.9103 158.112 11.4416 156.722 11.1199C155.333 10.7989 153.857 10.6379 152.296 10.6379ZM87.1176 10.9375H76.5625V39.0625H87.7677C89.9858 39.0625 91.8849 38.7349 93.4658 38.0792C95.0466 37.424 96.2637 36.4927 97.1181 35.2863C97.9719 34.0804 98.3992 32.6379 98.3992 30.9594C98.3992 29.255 97.9596 27.8063 97.0801 26.6127C96.2002 25.4198 94.9318 24.5476 93.2747 23.9969C94.4728 23.4205 95.3782 22.6398 95.99 21.6564C96.6019 20.6731 96.9078 19.5127 96.9078 18.1752C96.9078 15.8415 96.0535 14.0517 94.3457 12.8059C92.6372 11.5608 90.2278 10.9375 87.1176 10.9375ZM24.6175 10.9375H14.0625V39.0625H25.2677C27.4858 39.0625 29.3847 38.7349 30.966 38.0792C32.5464 37.424 33.7637 36.4927 34.6181 35.2863C35.4721 34.0804 35.8993 32.6379 35.8993 30.9594C35.8993 29.255 35.4596 27.8063 34.5799 26.6127C33.7004 25.4198 32.4318 24.5476 30.7747 23.9969C31.9728 23.4205 32.878 22.6398 33.4899 21.6564C34.1019 20.6731 34.4078 19.5127 34.4078 18.1752C34.4078 15.8415 33.5533 14.0517 31.8455 12.8059C30.1372 11.5608 27.7278 10.9375 24.6175 10.9375ZM87.3087 26.9077C90.8013 26.9077 92.5481 28.193 92.5481 30.7628C92.5481 31.9692 92.0889 32.8935 91.1714 33.5358C90.2535 34.1787 88.9401 34.4996 87.2323 34.4996H82.2608V26.9077H87.3087ZM24.8087 26.9077C28.3014 26.9077 30.0481 28.193 30.0481 30.7628C30.0481 31.9692 29.5891 32.8935 28.6714 33.5358C27.7535 34.1787 26.4401 34.4996 24.7323 34.4996H19.7608V26.9077H24.8087ZM86.5821 15.5004C89.6158 15.5004 91.1332 16.6154 91.1332 18.8438C91.1332 19.9982 90.7443 20.8961 89.9667 21.5385C89.1887 22.1813 88.0606 22.5022 86.5821 22.5022H82.2608V15.5004H86.5821ZM24.0821 15.5004C27.1158 15.5004 28.6332 16.6154 28.6332 18.8438C28.6332 19.9982 28.2441 20.8961 27.4667 21.5385C26.6887 22.1813 25.5606 22.5022 24.0821 22.5022H19.7608V15.5004H24.0821Z" fill="black"/>
</svg>
