<svg width="330" height="50" viewBox="0 0 330 50" fill="none" xmlns="http://www.w3.org/2000/svg">
<path d="M314.4 47.35C320.18 47.35 325 44.1 325 38.5C325 33.98 322.65 31.63 315.42 28.26C308.79 25.13 306.93 23.74 306.93 20.85C306.93 18.26 309.28 16.57 312.11 16.57C316.51 16.57 320.72 20.42 322.77 26.09H323.49L322.04 15.55H321.5C321.38 18.38 317.77 15.67 312.28 15.67C307.22 15.67 302.64 19.22 302.64 23.98C302.64 28.26 304.81 30.36 311.25 33.32C317.21 36.15 319.86 38.14 319.86 41.39C319.86 44.64 317.15 46.39 314.5 46.39C310.77 46.39 305.47 42.6 302.88 35.79H302.1L303.97 47.05H304.45C304.81 43.5 308.61 47.35 314.39 47.35M276.7 21.81L278.81 27.77L273.57 40.96L266.52 21.81C265.07 17.96 265.5 17.35 267.66 17.23V16.45H256.22V17.23C258.09 17.41 259.23 18.8 260.74 23.01L269.59 47.22C271.1 46.14 272.84 45.53 274.53 45.05C274.05 42.88 274.77 40.41 276.58 36.02L279.29 29.21L285.61 47.22C287.06 46.5 288.92 45.83 290.49 45.35C289.95 43.18 290.67 40.77 292.36 36.38L297.72 22.71C299.29 18.73 300.97 17.41 303.02 17.23V16.45H292.78V17.23C295.91 17.35 297.54 19.04 296.15 22.89L289.52 41.14L282.77 22.23C281.51 18.62 282.29 17.29 285.06 17.23V16.45H273.44V17.23C274.46 17.35 275.49 18.56 276.69 21.81M236.76 27.53C236.76 21.09 240.01 16.75 244.17 16.75C248.02 16.75 250.49 20.24 250.49 24.52C250.49 26.69 249.77 27.23 246.21 27.77L236.81 29.4L236.75 27.53H236.76ZM245.32 47.35C251.04 47.35 255.62 43.56 257.49 37.77L257.13 37.59C255.44 41.02 252.13 43.01 248.4 43.01C241.47 43.01 237.68 37.05 236.9 30.18L257.02 27.53C256.78 19.46 251.66 15.66 245.21 15.66C237.08 15.66 231.18 22.35 231.18 31.32C231.18 40.29 237.32 47.34 245.33 47.34M221.95 47.59C222.97 46.75 225.62 45.48 227.79 44.88C226.83 43.01 226.4 40.9 226.46 37.95L226.82 9.03998C226.82 5.36998 228.51 4.15998 232.12 3.97998V3.19998H218.99V3.97998C223.45 4.15998 225.43 5.36998 225.43 8.97998L225.37 40.24L201.71 3.19998H190.03V3.97998C193.94 4.15998 195.69 5.36998 195.63 8.97998L195.33 40.72C195.27 44.39 193.46 45.6 189.37 45.78V46.56H203.04V45.78C198.82 45.6 196.96 44.39 196.9 40.78L196.66 7.94998L221.96 47.58L221.95 47.59ZM169.55 27.53C169.55 21.09 172.8 16.75 176.96 16.75C180.81 16.75 183.28 20.24 183.28 24.52C183.28 26.69 182.56 27.23 179 27.77L169.6 29.4L169.54 27.53H169.55ZM178.1 47.35C183.82 47.35 188.4 43.56 190.27 37.77L189.91 37.59C188.22 41.02 184.91 43.01 181.18 43.01C174.25 43.01 170.46 37.05 169.68 30.18L189.8 27.53C189.56 19.46 184.44 15.66 177.99 15.66C169.86 15.66 163.96 22.35 163.96 31.32C163.96 40.29 170.1 47.34 178.11 47.34M150.39 47.35C156.23 47.35 161.11 43.74 163.04 37.95L162.5 37.65C160.51 41.81 156.6 42.95 153.71 42.95C147.21 42.95 142.45 37.35 142.45 28.13C142.45 21.26 145.94 16.69 151 16.69C155.04 16.69 156.66 19.22 156.66 21.27C156.66 22.96 155.82 24.04 155.82 25.55C155.82 27.48 157.08 28.62 158.83 28.62C160.58 28.62 162.08 27.11 162.08 24.34C162.08 20.18 158.04 15.67 151.36 15.67C142.99 15.67 136.78 22.84 136.78 31.81C136.78 40.78 142.32 47.35 150.39 47.35ZM123.59 46.56H136.78V45.78C134.31 45.6 133.05 44.64 133.05 41.8V24.63C133.05 18.49 130.1 15.66 125.52 15.66C120.94 15.66 116.79 18.73 114.26 23.85H113.96L114.68 15.66H114.44L104.62 18.37L104.74 19.15C107.81 18.61 108.59 20.11 108.59 22.88V41.49C108.59 44.62 107.51 45.65 104.86 45.77V46.55H118.47V45.77C115.82 45.59 114.56 44.63 114.56 41.79V25.17C116.85 20.83 120.04 19.45 122.09 19.45C125.1 19.45 127.09 21.38 127.09 26.08V41.5C127.09 44.63 126.07 45.66 123.6 45.78V46.56H123.59ZM84.0202 27.53C84.0202 21.09 87.2702 16.75 91.4302 16.75C95.2802 16.75 97.7502 20.24 97.7502 24.52C97.7502 26.69 97.0302 27.23 93.4702 27.77L84.0702 29.4L84.0102 27.53H84.0202ZM92.5702 47.35C98.2902 47.35 102.87 43.56 104.74 37.77L104.38 37.59C102.69 41.02 99.3802 43.01 95.6502 43.01C88.7202 43.01 84.9302 37.05 84.1502 30.18L104.27 27.53C104.03 19.46 98.9102 15.66 92.4602 15.66C84.3302 15.66 78.4302 22.35 78.4302 31.32C78.4302 40.29 84.5702 47.34 92.5802 47.34M71.1902 10.85C73.3002 10.85 75.0402 9.15998 75.0402 7.11998C75.0402 5.07998 73.2902 3.26998 71.1902 3.26998C69.2002 3.26998 67.4002 5.01998 67.4002 7.11998C67.4002 9.21998 69.1502 10.85 71.1902 10.85ZM64.8702 46.56H78.1202V45.78C75.7102 45.6 74.5702 44.64 74.5702 41.8V15.66H74.3302L64.6902 18.37V19.15C67.6402 18.85 68.6002 20.17 68.6002 23.06V41.49C68.6002 44.62 67.5202 45.65 64.8702 45.77V46.55V46.56ZM51.8602 47.35C57.7002 47.35 62.5802 43.74 64.5102 37.95L63.9702 37.65C61.9802 41.81 58.0702 42.95 55.1802 42.95C48.6802 42.95 43.9202 37.35 43.9202 28.13C43.9202 21.26 47.4102 16.69 52.4702 16.69C56.5102 16.69 58.1302 19.22 58.1302 21.27C58.1302 22.96 57.2902 24.04 57.2902 25.55C57.2902 27.48 58.5502 28.62 60.3002 28.62C62.0502 28.62 63.5502 27.11 63.5502 24.34C63.5502 20.18 59.5102 15.67 52.8302 15.67C44.4602 15.67 38.2502 22.84 38.2502 31.81C38.2502 40.78 43.7902 47.35 51.8602 47.35ZM21.0202 47.35C28.8502 47.35 35.1102 42.53 35.1102 34.94C35.1102 28.5 31.9202 25.42 22.7002 21.21C14.1502 17.23 10.8302 14.58 10.8302 10.25C10.8302 6.26998 14.0202 3.37998 18.7202 3.37998C24.1402 3.37998 30.5902 7.83998 32.8702 17.11H33.6502L32.5102 2.89998H31.7902C31.7302 4.40998 31.1902 4.94998 30.2802 4.94998C28.4102 4.94998 23.9602 2.41998 18.9002 2.41998C10.7702 2.41998 6.01023 7.95998 6.01023 14.04C6.01023 20.12 9.38023 23.26 17.3302 26.87C26.7302 31.27 30.1002 33.5 30.1002 38.43C30.1002 43.36 25.9402 46.38 21.2502 46.38C15.4102 46.38 7.88023 39.51 5.77023 30.06H4.99023L6.62023 46.74H7.34023C7.40023 44.87 8.00023 44.27 9.15023 44.27C11.3802 44.27 15.5302 47.34 21.0202 47.34" fill="black"/>
</svg>
